<svg width="56" height="33" viewBox="0 0 56 33" fill="none" xmlns="http://www.w3.org/2000/svg">
<path d="M5.40909 15H53.5909C54.2298 15 54.8426 15.158 55.2944 15.4393C55.7462 15.7206 56 16.1022 56 16.5C56 16.8978 55.7462 17.2794 55.2944 17.5607C54.8426 17.842 54.2298 18 53.5909 18H5.40909C4.77016 18 4.1574 17.842 3.70561 17.5607C3.25381 17.2794 3 16.8978 3 16.5C3 16.1022 3.25381 15.7206 3.70561 15.4393C4.1574 15.158 4.77016 15 5.40909 15Z" fill="url(#paint0_linear_2_1309)"/>
<path d="M5.92802 16.5L26.2804 30.1801C26.7411 30.4899 27 30.91 27 31.3481C27 31.7862 26.7411 32.2064 26.2804 32.5162C25.8196 32.826 25.1947 33 24.543 33C23.8914 33 23.2665 32.826 22.8057 32.5162L0.720915 17.6681C0.492395 17.5148 0.31109 17.3327 0.187384 17.1323C0.0636771 16.9319 0 16.717 0 16.5C0 16.283 0.0636771 16.0681 0.187384 15.8677C0.31109 15.6673 0.492395 15.4852 0.720915 15.3319L22.8057 0.483823C23.2665 0.174036 23.8914 0 24.543 0C25.1947 0 25.8196 0.174036 26.2804 0.483823C26.7411 0.79361 27 1.21377 27 1.65188C27 2.08998 26.7411 2.51014 26.2804 2.81993L5.92802 16.5Z" fill="url(#paint1_linear_2_1309)"/>
<defs>
<linearGradient id="paint0_linear_2_1309" x1="3" y1="16.5" x2="56.6306" y2="19.1051" gradientUnits="userSpaceOnUse">
<stop stop-color="#0E22FE"/>
<stop offset="1" stop-color="#DE08FD"/>
</linearGradient>
<linearGradient id="paint1_linear_2_1309" x1="-1.30328e-08" y1="16.5" x2="27.3856" y2="16.5616" gradientUnits="userSpaceOnUse">
<stop stop-color="#0E22FE"/>
<stop offset="1" stop-color="#DE08FD"/>
</linearGradient>
</defs>
</svg>
