<svg
            width="176"
            height="85"
            viewBox="0 0 176 85"
            fill="none"
            xmlns="http://www.w3.org/2000/svg"
          >
            <path
              fill-rule="evenodd"
              clip-rule="evenodd"
              d="M109.743 22.7979V68.8675H116.548V22.7979H109.743ZM69.3071 36.6635C69.3845 36.1134 69.5135 35.5684 69.6789 35.0337C70.03 33.9541 70.6495 32.9824 71.4701 32.201C71.9194 31.7742 72.4201 31.4041 72.9573 31.1008C73.5509 30.7717 74.1704 30.4993 74.8159 30.2936C76.432 29.7949 78.115 29.5533 79.8033 29.5841L98.2763 29.5944V22.8235H79.23C76.5711 22.7618 73.9227 23.1577 71.4033 24.006C70.386 24.3813 69.4105 24.8543 68.4913 25.425C66.8391 26.4429 65.4659 27.8413 64.4847 29.4967C63.9945 30.3296 63.5968 31.2087 63.3077 32.129C62.6728 34.1957 62.363 36.3499 62.3885 38.5092V68.8675H69.1883V50.0409H97.992V43.6965H69.1729V38.4115C69.1729 37.8254 69.2191 37.2444 69.3071 36.6635Z"
              fill="white"
            />
            <path
              fill-rule="evenodd"
              clip-rule="evenodd"
              d="M174.656 35.6506C173.887 32.9926 172.524 30.5454 170.66 28.4993H170.645C167.098 24.7205 161.94 22.8337 155.171 22.8337H148.661C145.604 22.7669 142.563 23.2502 139.678 24.2475C137.204 25.137 134.984 26.5919 133.188 28.4993C129.62 32.278 127.839 38.0978 127.839 45.9533C127.839 53.8093 129.62 59.5722 133.188 63.2587C134.989 65.1454 137.215 66.5847 139.678 67.4535C142.563 68.4512 145.604 68.9292 148.661 68.8727H155.171C158.228 68.9292 161.269 68.4512 164.155 67.4535C166.617 66.5847 168.843 65.1454 170.645 63.2587C172.513 61.238 173.882 58.8116 174.641 56.1739C175.601 52.8475 176.055 49.4033 175.993 45.9433C176.061 42.4677 175.611 38.9975 174.656 35.6506ZM168.342 53.1148C167.898 54.9813 167.036 56.719 165.812 58.1995C163.556 60.7959 160.019 62.0915 155.207 62.0968H148.697C146.56 62.1428 144.433 61.8242 142.403 61.1556C140.694 60.5852 139.172 59.5722 137.984 58.2354C136.781 56.7602 135.934 55.0273 135.506 53.1819C134.928 50.8167 134.649 48.385 134.695 45.9533C134.695 40.2776 135.81 36.139 138.041 33.5324C139.218 32.1752 140.736 31.1521 142.439 30.5609C144.453 29.8771 146.534 29.548 148.661 29.5943H155.171C157.293 29.548 159.41 29.8771 161.418 30.5609C163.127 31.1469 164.645 32.1752 165.817 33.5376C167.025 35.0336 167.877 36.7714 168.311 38.6376C168.889 41.0077 169.168 43.4394 169.121 45.8815C169.173 48.3132 168.91 50.7501 168.342 53.1148Z"
              fill="white"
            />
            <path
              fill-rule="evenodd"
              clip-rule="evenodd"
              d="M20.3729 54.7346V83.0778C20.3729 84.5841 19.4229 85.3035 18.2509 84.666L2.14779 75.8747C0.846734 75.001 0.0516435 73.5459 0.0155029 71.9831V44.2827C0.252997 44.4729 0.500815 44.6372 0.764124 44.7813L20.3729 54.7346Z"
              fill="#765CD6"
            />
            <path
              fill-rule="evenodd"
              clip-rule="evenodd"
              d="M0.0154887 20.1914V21.2762C-0.00516292 20.8803 -0.00516292 20.5204 0.0154887 20.1914Z"
              fill="#765CD6"
            />
            <path
              fill-rule="evenodd"
              clip-rule="evenodd"
              d="M35.8978 1.49816V21.5588C35.872 22.8287 35.2008 24.0061 34.1269 24.6847L24.2864 29.7076H24.2812L1.8019 18.2377C1.77092 18.2172 1.73995 18.2017 1.70897 18.1863C1.62636 18.1451 1.54376 18.1195 1.46115 18.0937C1.40435 18.0834 1.34756 18.068 1.29593 18.0629C1.2443 18.0526 1.19268 18.0526 1.14105 18.0526C0.986161 18.0578 0.836434 18.0937 0.697037 18.1554C0.650569 18.1811 0.604105 18.2017 0.562802 18.2325C0.562802 18.2325 0.562802 18.2377 0.552475 18.2377L0.536987 18.2531C1.18751 17.0758 2.45243 16.3972 4.33689 15.3895L34.1269 0.176881C35.0976 -0.316668 35.8978 0.254002 35.8978 1.49816Z"
              fill="#765CD6"
            />
            <path
              fill-rule="evenodd"
              clip-rule="evenodd"
              d="M35.8977 37.8668V57.9172C35.8977 59.1615 35.0975 59.7421 34.1268 59.2487L1.80179 42.7405C1.06866 42.283 0.526549 41.5941 0.237427 40.8023C0.263241 40.8435 0.283893 40.8846 0.31487 40.9206C0.335522 40.9463 0.356174 40.972 0.381988 40.9977C0.387151 41.0079 0.392314 41.0131 0.40264 41.0234C0.423292 41.044 0.443944 41.0697 0.469759 41.0902C0.495573 41.1211 0.526549 41.1416 0.557525 41.1673C0.603994 41.1982 0.645297 41.2291 0.696926 41.2496C1.00154 41.409 1.38876 41.3987 1.80179 41.1879L24.2811 29.7129H24.2863L34.1268 34.7307C35.2059 35.4144 35.8718 36.5918 35.8977 37.8668Z"
              fill="#A08AEE"
            />
            <path
              fill-rule="evenodd"
              clip-rule="evenodd"
              d="M24.2812 29.7129L1.80187 41.1879C1.38884 41.3986 1.00162 41.4089 0.697006 41.2496C0.645377 41.229 0.604074 41.1981 0.55761 41.1673C0.52663 41.1416 0.495654 41.121 0.469839 41.0902C0.444024 41.0696 0.423373 41.0439 0.402722 41.0234C0.392396 41.0131 0.387233 41.0079 0.38207 40.9976C0.356256 40.9719 0.335604 40.9462 0.314952 40.9205C0.283974 40.8845 0.263323 40.8434 0.237508 40.8023C0.0981097 40.5555 0.0155029 40.2368 0.0155029 39.8666V19.5539C0.0155029 18.9473 0.216856 18.4949 0.536956 18.2532C0.542122 18.2481 0.547283 18.243 0.552444 18.243C0.552444 18.243 0.55761 18.2327 0.562771 18.2327C0.604074 18.2018 0.650542 18.1812 0.697006 18.1555C0.836407 18.0938 0.98613 18.0579 1.14102 18.0527C1.19265 18.0527 1.24428 18.0527 1.29591 18.063C1.34753 18.0682 1.40433 18.0836 1.46112 18.0938C1.54372 18.1196 1.62633 18.1453 1.70894 18.1864C1.73992 18.2018 1.77089 18.2173 1.80187 18.2378L24.2812 29.7129Z"
              fill="#8B73E2"
            />
          </svg>